# xmcd
#
# Track frame offsets: 
#        150
#        13363
#        29524
#        40322
#        59961
#        69887
#        82484
#        94012
#        111869
#        122275
#        138156
#        147930
#        159128
#        176116
#        188100
#        200088
#        209671
#        223273
#        233666
#        250654
#        263796
#        283300
#        294916
#        313277
#
# Disc length: 4342 seconds
#
# Revision: 0
# Processed by: cddbd v1.5.2PL0 Copyright (c) Steve Scherf et al.
# Submitted via: ExactAudioCopyFreeDBPlugin 1.0
#
DISCID=7c10f418
DTITLE=Various Artist - Walking Dream
DYEAR=2010
DGENRE=Country
TTITLE0=Patsy Cline - Life`s A Railway To Heaven
TTITLE1=Kenny Rogers - Green, Green Gras Of Home
TTITLE2=Patsy Cline - I Can See An Angel Walkin`
TTITLE3=Kenny Rogers - Coward Of The Country
TTITLE4=Patsy Cline - Turn the Cards Slowly
TTITLE5=Kenny Rogers - Reuben James
TTITLE6=Patsy Cline - Lonley Street
TTITLE7=Kenny Rogers - Something`s Burning
TTITLE8=Patsy Cline - Pick Me Up On Your Way Down
TTITLE9=Kenny Rogers - The Gambler
TTITLE10=Patsy Cline - I`m Blue Again
TTITLE11=Patsy Cline - Hidin Out
TTITLE12=Kenny Rogers - Desperado
TTITLE13=Patsy Cline - Today, Tomorrow, And Forever
TTITLE14=Kenny Rogers and Kim Carnes - Blaze Of Glory
TTITLE15=Patsy Cline - I`m Moving Along
TTITLE16=Kenny Rogers and Dottie West - Every Time Two Fools Collide
TTITLE17=Patsy Cline - Too Many Secrets
TTITLE18=Kenny Rogers - Love Lifted Me
TTITLE19=Patsy Cline - If I Could See The World (Through The Eyes Of A
TTITLE19=Child)
TTITLE20=Kenny Rogers - Long Arm Of The Law
TTITLE21=Patsy Cline - I`ve Loved An Lost Again
TTITLE22=Kenny Rogers - My Funny Valentine
TTITLE23=Patsy Cline - A Poor Man`s Roses (Or A Rich Man`s Gold)
EXTD=
EXTT0=
EXTT1=
EXTT2=
EXTT3=
EXTT4=
EXTT5=
EXTT6=
EXTT7=
EXTT8=
EXTT9=
EXTT10=
EXTT11=
EXTT12=
EXTT13=
EXTT14=
EXTT15=
EXTT16=
EXTT17=
EXTT18=
EXTT19=
EXTT20=
EXTT21=
EXTT22=
EXTT23=
PLAYORDER=
